<?xml version="1.0" encoding="utf-8" standalone="no"?>
<!DOCTYPE svg PUBLIC "-//W3C//DTD SVG 1.1//EN"
  "http://www.w3.org/Graphics/SVG/1.1/DTD/svg11.dtd">
<!-- Created with matplotlib (http://matplotlib.org/) -->
<svg height="345.6pt" version="1.1" viewBox="0 0 460.8 345.6" width="460.8pt" xmlns="http://www.w3.org/2000/svg" xmlns:xlink="http://www.w3.org/1999/xlink">
 <defs>
  <style type="text/css">
*{stroke-linecap:butt;stroke-linejoin:round;}
  </style>
 </defs>
 <g id="figure_1">
  <g id="patch_1">
   <path d="M 0 345.6 
L 460.8 345.6 
L 460.8 0 
L 0 0 
z
" style="fill:#ffffff;"/>
  </g>
  <g id="patch_2">
   <path d="M 57.6 307.584 
L 414.72 307.584 
L 414.72 41.472 
L 57.6 41.472 
z
" style="fill:#ffffff;"/>
  </g>
  <g id="pane3d_1">
   <g id="patch_3">
    <path d="M 104.941774 248.782626 
L 207.151387 183.537994 
L 205.449705 58.866209 
L 97.541237 117.48717 
" style="fill:#f2f2f2;opacity:0.5;stroke:#f2f2f2;stroke-linejoin:miter;"/>
   </g>
  </g>
  <g id="pane3d_2">
   <g id="patch_4">
    <path d="M 207.151387 183.537994 
L 372.72135 220.013954 
L 379.648599 91.582742 
L 205.449705 58.866209 
" style="fill:#e6e6e6;opacity:0.5;stroke:#e6e6e6;stroke-linejoin:miter;"/>
   </g>
  </g>
  <g id="pane3d_3">
   <g id="patch_5">
    <path d="M 104.941774 248.782626 
L 279.143747 291.264825 
L 372.72135 220.013954 
L 207.151387 183.537994 
" style="fill:#ececec;opacity:0.5;stroke:#ececec;stroke-linejoin:miter;"/>
   </g>
  </g>
  <g id="axis3d_1">
   <g id="line2d_1">
    <path d="M 104.941774 248.782626 
L 279.143747 291.264825 
" style="fill:none;stroke:#000000;stroke-linecap:square;stroke-width:0.8;"/>
   </g>
   <g id="text_1">
    <!-- motion_planner -&gt; mSpeedForward (m/s) -->
    <defs>
     <path d="M 52 44.1875 
Q 55.375 50.25 60.0625 53.125 
Q 64.75 56 71.09375 56 
Q 79.640625 56 84.28125 50.015625 
Q 88.921875 44.046875 88.921875 33.015625 
L 88.921875 0 
L 79.890625 0 
L 79.890625 32.71875 
Q 79.890625 40.578125 77.09375 44.375 
Q 74.3125 48.1875 68.609375 48.1875 
Q 61.625 48.1875 57.5625 43.546875 
Q 53.515625 38.921875 53.515625 30.90625 
L 53.515625 0 
L 44.484375 0 
L 44.484375 32.71875 
Q 44.484375 40.625 41.703125 44.40625 
Q 38.921875 48.1875 33.109375 48.1875 
Q 26.21875 48.1875 22.15625 43.53125 
Q 18.109375 38.875 18.109375 30.90625 
L 18.109375 0 
L 9.078125 0 
L 9.078125 54.6875 
L 18.109375 54.6875 
L 18.109375 46.1875 
Q 21.1875 51.21875 25.484375 53.609375 
Q 29.78125 56 35.6875 56 
Q 41.65625 56 45.828125 52.96875 
Q 50 49.953125 52 44.1875 
z
" id="DejaVuSans-6d"/>
     <path d="M 30.609375 48.390625 
Q 23.390625 48.390625 19.1875 42.75 
Q 14.984375 37.109375 14.984375 27.296875 
Q 14.984375 17.484375 19.15625 11.84375 
Q 23.34375 6.203125 30.609375 6.203125 
Q 37.796875 6.203125 41.984375 11.859375 
Q 46.1875 17.53125 46.1875 27.296875 
Q 46.1875 37.015625 41.984375 42.703125 
Q 37.796875 48.390625 30.609375 48.390625 
z
M 30.609375 56 
Q 42.328125 56 49.015625 48.375 
Q 55.71875 40.765625 55.71875 27.296875 
Q 55.71875 13.875 49.015625 6.21875 
Q 42.328125 -1.421875 30.609375 -1.421875 
Q 18.84375 -1.421875 12.171875 6.21875 
Q 5.515625 13.875 5.515625 27.296875 
Q 5.515625 40.765625 12.171875 48.375 
Q 18.84375 56 30.609375 56 
z
" id="DejaVuSans-6f"/>
     <path d="M 18.3125 70.21875 
L 18.3125 54.6875 
L 36.8125 54.6875 
L 36.8125 47.703125 
L 18.3125 47.703125 
L 18.3125 18.015625 
Q 18.3125 11.328125 20.140625 9.421875 
Q 21.96875 7.515625 27.59375 7.515625 
L 36.8125 7.515625 
L 36.8125 0 
L 27.59375 0 
Q 17.1875 0 13.234375 3.875 
Q 9.28125 7.765625 9.28125 18.015625 
L 9.28125 47.703125 
L 2.6875 47.703125 
L 2.6875 54.6875 
L 9.28125 54.6875 
L 9.28125 70.21875 
z
" id="DejaVuSans-74"/>
     <path d="M 9.421875 54.6875 
L 18.40625 54.6875 
L 18.40625 0 
L 9.421875 0 
z
M 9.421875 75.984375 
L 18.40625 75.984375 
L 18.40625 64.59375 
L 9.421875 64.59375 
z
" id="DejaVuSans-69"/>
     <path d="M 54.890625 33.015625 
L 54.890625 0 
L 45.90625 0 
L 45.90625 32.71875 
Q 45.90625 40.484375 42.875 44.328125 
Q 39.84375 48.1875 33.796875 48.1875 
Q 26.515625 48.1875 22.3125 43.546875 
Q 18.109375 38.921875 18.109375 30.90625 
L 18.109375 0 
L 9.078125 0 
L 9.078125 54.6875 
L 18.109375 54.6875 
L 18.109375 46.1875 
Q 21.34375 51.125 25.703125 53.5625 
Q 30.078125 56 35.796875 56 
Q 45.21875 56 50.046875 50.171875 
Q 54.890625 44.34375 54.890625 33.015625 
z
" id="DejaVuSans-6e"/>
     <path d="M 50.984375 -16.609375 
L 50.984375 -23.578125 
L -0.984375 -23.578125 
L -0.984375 -16.609375 
z
" id="DejaVuSans-5f"/>
     <path d="M 18.109375 8.203125 
L 18.109375 -20.796875 
L 9.078125 -20.796875 
L 9.078125 54.6875 
L 18.109375 54.6875 
L 18.109375 46.390625 
Q 20.953125 51.265625 25.265625 53.625 
Q 29.59375 56 35.59375 56 
Q 45.5625 56 51.78125 48.09375 
Q 58.015625 40.1875 58.015625 27.296875 
Q 58.015625 14.40625 51.78125 6.484375 
Q 45.5625 -1.421875 35.59375 -1.421875 
Q 29.59375 -1.421875 25.265625 0.953125 
Q 20.953125 3.328125 18.109375 8.203125 
z
M 48.6875 27.296875 
Q 48.6875 37.203125 44.609375 42.84375 
Q 40.53125 48.484375 33.40625 48.484375 
Q 26.265625 48.484375 22.1875 42.84375 
Q 18.109375 37.203125 18.109375 27.296875 
Q 18.109375 17.390625 22.1875 11.75 
Q 26.265625 6.109375 33.40625 6.109375 
Q 40.53125 6.109375 44.609375 11.75 
Q 48.6875 17.390625 48.6875 27.296875 
z
" id="DejaVuSans-70"/>
     <path d="M 9.421875 75.984375 
L 18.40625 75.984375 
L 18.40625 0 
L 9.421875 0 
z
" id="DejaVuSans-6c"/>
     <path d="M 34.28125 27.484375 
Q 23.390625 27.484375 19.1875 25 
Q 14.984375 22.515625 14.984375 16.5 
Q 14.984375 11.71875 18.140625 8.90625 
Q 21.296875 6.109375 26.703125 6.109375 
Q 34.1875 6.109375 38.703125 11.40625 
Q 43.21875 16.703125 43.21875 25.484375 
L 43.21875 27.484375 
z
M 52.203125 31.203125 
L 52.203125 0 
L 43.21875 0 
L 43.21875 8.296875 
Q 40.140625 3.328125 35.546875 0.953125 
Q 30.953125 -1.421875 24.3125 -1.421875 
Q 15.921875 -1.421875 10.953125 3.296875 
Q 6 8.015625 6 15.921875 
Q 6 25.140625 12.171875 29.828125 
Q 18.359375 34.515625 30.609375 34.515625 
L 43.21875 34.515625 
L 43.21875 35.40625 
Q 43.21875 41.609375 39.140625 45 
Q 35.0625 48.390625 27.6875 48.390625 
Q 23 48.390625 18.546875 47.265625 
Q 14.109375 46.140625 10.015625 43.890625 
L 10.015625 52.203125 
Q 14.9375 54.109375 19.578125 55.046875 
Q 24.21875 56 28.609375 56 
Q 40.484375 56 46.34375 49.84375 
Q 52.203125 43.703125 52.203125 31.203125 
z
" id="DejaVuSans-61"/>
     <path d="M 56.203125 29.59375 
L 56.203125 25.203125 
L 14.890625 25.203125 
Q 15.484375 15.921875 20.484375 11.0625 
Q 25.484375 6.203125 34.421875 6.203125 
Q 39.59375 6.203125 44.453125 7.46875 
Q 49.3125 8.734375 54.109375 11.28125 
L 54.109375 2.78125 
Q 49.265625 0.734375 44.1875 -0.34375 
Q 39.109375 -1.421875 33.890625 -1.421875 
Q 20.796875 -1.421875 13.15625 6.1875 
Q 5.515625 13.8125 5.515625 26.8125 
Q 5.515625 40.234375 12.765625 48.109375 
Q 20.015625 56 32.328125 56 
Q 43.359375 56 49.78125 48.890625 
Q 56.203125 41.796875 56.203125 29.59375 
z
M 47.21875 32.234375 
Q 47.125 39.59375 43.09375 43.984375 
Q 39.0625 48.390625 32.421875 48.390625 
Q 24.90625 48.390625 20.390625 44.140625 
Q 15.875 39.890625 15.1875 32.171875 
z
" id="DejaVuSans-65"/>
     <path d="M 41.109375 46.296875 
Q 39.59375 47.171875 37.8125 47.578125 
Q 36.03125 48 33.890625 48 
Q 26.265625 48 22.1875 43.046875 
Q 18.109375 38.09375 18.109375 28.8125 
L 18.109375 0 
L 9.078125 0 
L 9.078125 54.6875 
L 18.109375 54.6875 
L 18.109375 46.1875 
Q 20.953125 51.171875 25.484375 53.578125 
Q 30.03125 56 36.53125 56 
Q 37.453125 56 38.578125 55.875 
Q 39.703125 55.765625 41.0625 55.515625 
z
" id="DejaVuSans-72"/>
     <path id="DejaVuSans-20"/>
     <path d="M 4.890625 31.390625 
L 31.203125 31.390625 
L 31.203125 23.390625 
L 4.890625 23.390625 
z
" id="DejaVuSans-2d"/>
     <path d="M 10.59375 49.21875 
L 10.59375 58.109375 
L 73.1875 35.40625 
L 73.1875 27.296875 
L 10.59375 4.59375 
L 10.59375 13.484375 
L 60.890625 31.296875 
z
" id="DejaVuSans-3e"/>
     <path d="M 53.515625 70.515625 
L 53.515625 60.890625 
Q 47.90625 63.578125 42.921875 64.890625 
Q 37.9375 66.21875 33.296875 66.21875 
Q 25.25 66.21875 20.875 63.09375 
Q 16.5 59.96875 16.5 54.203125 
Q 16.5 49.359375 19.40625 46.890625 
Q 22.3125 44.4375 30.421875 42.921875 
L 36.375 41.703125 
Q 47.40625 39.59375 52.65625 34.296875 
Q 57.90625 29 57.90625 20.125 
Q 57.90625 9.515625 50.796875 4.046875 
Q 43.703125 -1.421875 29.984375 -1.421875 
Q 24.8125 -1.421875 18.96875 -0.25 
Q 13.140625 0.921875 6.890625 3.21875 
L 6.890625 13.375 
Q 12.890625 10.015625 18.65625 8.296875 
Q 24.421875 6.59375 29.984375 6.59375 
Q 38.421875 6.59375 43.015625 9.90625 
Q 47.609375 13.234375 47.609375 19.390625 
Q 47.609375 24.75 44.3125 27.78125 
Q 41.015625 30.8125 33.5 32.328125 
L 27.484375 33.5 
Q 16.453125 35.6875 11.515625 40.375 
Q 6.59375 45.0625 6.59375 53.421875 
Q 6.59375 63.09375 13.40625 68.65625 
Q 20.21875 74.21875 32.171875 74.21875 
Q 37.3125 74.21875 42.625 73.28125 
Q 47.953125 72.359375 53.515625 70.515625 
z
" id="DejaVuSans-53"/>
     <path d="M 45.40625 46.390625 
L 45.40625 75.984375 
L 54.390625 75.984375 
L 54.390625 0 
L 45.40625 0 
L 45.40625 8.203125 
Q 42.578125 3.328125 38.25 0.953125 
Q 33.9375 -1.421875 27.875 -1.421875 
Q 17.96875 -1.421875 11.734375 6.484375 
Q 5.515625 14.40625 5.515625 27.296875 
Q 5.515625 40.1875 11.734375 48.09375 
Q 17.96875 56 27.875 56 
Q 33.9375 56 38.25 53.625 
Q 42.578125 51.265625 45.40625 46.390625 
z
M 14.796875 27.296875 
Q 14.796875 17.390625 18.875 11.75 
Q 22.953125 6.109375 30.078125 6.109375 
Q 37.203125 6.109375 41.296875 11.75 
Q 45.40625 17.390625 45.40625 27.296875 
Q 45.40625 37.203125 41.296875 42.84375 
Q 37.203125 48.484375 30.078125 48.484375 
Q 22.953125 48.484375 18.875 42.84375 
Q 14.796875 37.203125 14.796875 27.296875 
z
" id="DejaVuSans-64"/>
     <path d="M 9.8125 72.90625 
L 51.703125 72.90625 
L 51.703125 64.59375 
L 19.671875 64.59375 
L 19.671875 43.109375 
L 48.578125 43.109375 
L 48.578125 34.8125 
L 19.671875 34.8125 
L 19.671875 0 
L 9.8125 0 
z
" id="DejaVuSans-46"/>
     <path d="M 4.203125 54.6875 
L 13.1875 54.6875 
L 24.421875 12.015625 
L 35.59375 54.6875 
L 46.1875 54.6875 
L 57.421875 12.015625 
L 68.609375 54.6875 
L 77.59375 54.6875 
L 63.28125 0 
L 52.6875 0 
L 40.921875 44.828125 
L 29.109375 0 
L 18.5 0 
z
" id="DejaVuSans-77"/>
     <path d="M 31 75.875 
Q 24.46875 64.65625 21.28125 53.65625 
Q 18.109375 42.671875 18.109375 31.390625 
Q 18.109375 20.125 21.3125 9.0625 
Q 24.515625 -2 31 -13.1875 
L 23.1875 -13.1875 
Q 15.875 -1.703125 12.234375 9.375 
Q 8.59375 20.453125 8.59375 31.390625 
Q 8.59375 42.28125 12.203125 53.3125 
Q 15.828125 64.359375 23.1875 75.875 
z
" id="DejaVuSans-28"/>
     <path d="M 25.390625 72.90625 
L 33.6875 72.90625 
L 8.296875 -9.28125 
L 0 -9.28125 
z
" id="DejaVuSans-2f"/>
     <path d="M 44.28125 53.078125 
L 44.28125 44.578125 
Q 40.484375 46.53125 36.375 47.5 
Q 32.28125 48.484375 27.875 48.484375 
Q 21.1875 48.484375 17.84375 46.4375 
Q 14.5 44.390625 14.5 40.28125 
Q 14.5 37.15625 16.890625 35.375 
Q 19.28125 33.59375 26.515625 31.984375 
L 29.59375 31.296875 
Q 39.15625 29.25 43.1875 25.515625 
Q 47.21875 21.78125 47.21875 15.09375 
Q 47.21875 7.46875 41.1875 3.015625 
Q 35.15625 -1.421875 24.609375 -1.421875 
Q 20.21875 -1.421875 15.453125 -0.5625 
Q 10.6875 0.296875 5.421875 2 
L 5.421875 11.28125 
Q 10.40625 8.6875 15.234375 7.390625 
Q 20.0625 6.109375 24.8125 6.109375 
Q 31.15625 6.109375 34.5625 8.28125 
Q 37.984375 10.453125 37.984375 14.40625 
Q 37.984375 18.0625 35.515625 20.015625 
Q 33.0625 21.96875 24.703125 23.78125 
L 21.578125 24.515625 
Q 13.234375 26.265625 9.515625 29.90625 
Q 5.8125 33.546875 5.8125 39.890625 
Q 5.8125 47.609375 11.28125 51.796875 
Q 16.75 56 26.8125 56 
Q 31.78125 56 36.171875 55.265625 
Q 40.578125 54.546875 44.28125 53.078125 
z
" id="DejaVuSans-73"/>
     <path d="M 8.015625 75.875 
L 15.828125 75.875 
Q 23.140625 64.359375 26.78125 53.3125 
Q 30.421875 42.28125 30.421875 31.390625 
Q 30.421875 20.453125 26.78125 9.375 
Q 23.140625 -1.703125 15.828125 -13.1875 
L 8.015625 -13.1875 
Q 14.5 -2 17.703125 9.0625 
Q 20.90625 20.125 20.90625 31.390625 
Q 20.90625 42.671875 17.703125 53.65625 
Q 14.5 64.65625 8.015625 75.875 
z
" id="DejaVuSans-29"/>
    </defs>
    <g transform="translate(72.583022 278.385554)rotate(-346.294929)scale(0.1 -0.1)">
     <use xlink:href="#DejaVuSans-6d"/>
     <use x="97.412109" xlink:href="#DejaVuSans-6f"/>
     <use x="158.59375" xlink:href="#DejaVuSans-74"/>
     <use x="197.802734" xlink:href="#DejaVuSans-69"/>
     <use x="225.585938" xlink:href="#DejaVuSans-6f"/>
     <use x="286.767578" xlink:href="#DejaVuSans-6e"/>
     <use x="350.146484" xlink:href="#DejaVuSans-5f"/>
     <use x="400.146484" xlink:href="#DejaVuSans-70"/>
     <use x="463.623047" xlink:href="#DejaVuSans-6c"/>
     <use x="491.40625" xlink:href="#DejaVuSans-61"/>
     <use x="552.685547" xlink:href="#DejaVuSans-6e"/>
     <use x="616.064453" xlink:href="#DejaVuSans-6e"/>
     <use x="679.443359" xlink:href="#DejaVuSans-65"/>
     <use x="740.966797" xlink:href="#DejaVuSans-72"/>
     <use x="782.080078" xlink:href="#DejaVuSans-20"/>
     <use x="813.867188" xlink:href="#DejaVuSans-2d"/>
     <use x="849.951172" xlink:href="#DejaVuSans-3e"/>
     <use x="933.740234" xlink:href="#DejaVuSans-20"/>
     <use x="965.527344" xlink:href="#DejaVuSans-6d"/>
     <use x="1062.939453" xlink:href="#DejaVuSans-53"/>
     <use x="1126.416016" xlink:href="#DejaVuSans-70"/>
     <use x="1189.892578" xlink:href="#DejaVuSans-65"/>
     <use x="1251.416016" xlink:href="#DejaVuSans-65"/>
     <use x="1312.939453" xlink:href="#DejaVuSans-64"/>
     <use x="1376.416016" xlink:href="#DejaVuSans-46"/>
     <use x="1433.888672" xlink:href="#DejaVuSans-6f"/>
     <use x="1495.070312" xlink:href="#DejaVuSans-72"/>
     <use x="1536.183594" xlink:href="#DejaVuSans-77"/>
     <use x="1617.970703" xlink:href="#DejaVuSans-61"/>
     <use x="1679.25" xlink:href="#DejaVuSans-72"/>
     <use x="1720.347656" xlink:href="#DejaVuSans-64"/>
     <use x="1783.824219" xlink:href="#DejaVuSans-20"/>
     <use x="1815.611328" xlink:href="#DejaVuSans-28"/>
     <use x="1854.625" xlink:href="#DejaVuSans-6d"/>
     <use x="1952.037109" xlink:href="#DejaVuSans-2f"/>
     <use x="1985.728516" xlink:href="#DejaVuSans-73"/>
     <use x="2037.828125" xlink:href="#DejaVuSans-29"/>
    </g>
   </g>
   <g id="Line3DCollection_1">
    <path d="M 115.562252 251.372616 
L 217.277438 185.768818 
L 216.081723 60.863023 
" style="fill:none;stroke:#b0b0b0;stroke-width:0.8;"/>
    <path d="M 136.546271 256.489936 
L 237.272378 190.173811 
L 237.084063 64.807501 
" style="fill:none;stroke:#b0b0b0;stroke-width:0.8;"/>
    <path d="M 157.767386 261.665076 
L 257.476798 194.624955 
L 258.317655 68.795411 
" style="fill:none;stroke:#b0b0b0;stroke-width:0.8;"/>
    <path d="M 179.229639 266.899022 
L 277.894008 199.122976 
L 279.786342 72.827475 
" style="fill:none;stroke:#b0b0b0;stroke-width:0.8;"/>
    <path d="M 200.937162 272.192781 
L 298.527385 203.668621 
L 301.494048 76.904429 
" style="fill:none;stroke:#b0b0b0;stroke-width:0.8;"/>
    <path d="M 222.894185 277.547385 
L 319.380383 208.26265 
L 323.444789 81.027027 
" style="fill:none;stroke:#b0b0b0;stroke-width:0.8;"/>
    <path d="M 245.105035 282.96389 
L 340.456525 212.905838 
L 345.642667 85.196041 
" style="fill:none;stroke:#b0b0b0;stroke-width:0.8;"/>
    <path d="M 267.574137 288.443373 
L 361.759413 217.59898 
L 368.091882 89.412259 
" style="fill:none;stroke:#b0b0b0;stroke-width:0.8;"/>
   </g>
   <g id="xtick_1">
    <g id="line2d_2">
     <path d="M 116.438581 250.807405 
L 113.806326 252.505145 
" style="fill:none;stroke:#000000;stroke-linecap:square;stroke-width:0.8;"/>
    </g>
    <g id="text_2">
     <!-- 0.2 -->
     <defs>
      <path d="M 31.78125 66.40625 
Q 24.171875 66.40625 20.328125 58.90625 
Q 16.5 51.421875 16.5 36.375 
Q 16.5 21.390625 20.328125 13.890625 
Q 24.171875 6.390625 31.78125 6.390625 
Q 39.453125 6.390625 43.28125 13.890625 
Q 47.125 21.390625 47.125 36.375 
Q 47.125 51.421875 43.28125 58.90625 
Q 39.453125 66.40625 31.78125 66.40625 
z
M 31.78125 74.21875 
Q 44.046875 74.21875 50.515625 64.515625 
Q 56.984375 54.828125 56.984375 36.375 
Q 56.984375 17.96875 50.515625 8.265625 
Q 44.046875 -1.421875 31.78125 -1.421875 
Q 19.53125 -1.421875 13.0625 8.265625 
Q 6.59375 17.96875 6.59375 36.375 
Q 6.59375 54.828125 13.0625 64.515625 
Q 19.53125 74.21875 31.78125 74.21875 
z
" id="DejaVuSans-30"/>
      <path d="M 10.6875 12.40625 
L 21 12.40625 
L 21 0 
L 10.6875 0 
z
" id="DejaVuSans-2e"/>
      <path d="M 19.1875 8.296875 
L 53.609375 8.296875 
L 53.609375 0 
L 7.328125 0 
L 7.328125 8.296875 
Q 12.9375 14.109375 22.625 23.890625 
Q 32.328125 33.6875 34.8125 36.53125 
Q 39.546875 41.84375 41.421875 45.53125 
Q 43.3125 49.21875 43.3125 52.78125 
Q 43.3125 58.59375 39.234375 62.25 
Q 35.15625 65.921875 28.609375 65.921875 
Q 23.96875 65.921875 18.8125 64.3125 
Q 13.671875 62.703125 7.8125 59.421875 
L 7.8125 69.390625 
Q 13.765625 71.78125 18.9375 73 
Q 24.125 74.21875 28.421875 74.21875 
Q 39.75 74.21875 46.484375 68.546875 
Q 53.21875 62.890625 53.21875 53.421875 
Q 53.21875 48.921875 51.53125 44.890625 
Q 49.859375 40.875 45.40625 35.40625 
Q 44.1875 33.984375 37.640625 27.21875 
Q 31.109375 20.453125 19.1875 8.296875 
z
" id="DejaVuSans-32"/>
     </defs>
     <g transform="translate(100.290567 272.84452)scale(0.1 -0.1)">
      <use xlink:href="#DejaVuSans-30"/>
      <use x="63.623047" xlink:href="#DejaVuSans-2e"/>
      <use x="95.410156" xlink:href="#DejaVuSans-32"/>
     </g>
    </g>
   </g>
   <g id="xtick_2">
    <g id="line2d_3">
     <path d="M 137.414426 255.918359 
L 134.806704 257.635233 
" style="fill:none;stroke:#000000;stroke-linecap:square;stroke-width:0.8;"/>
    </g>
    <g id="text_3">
     <!-- 0.3 -->
     <defs>
      <path d="M 40.578125 39.3125 
Q 47.65625 37.796875 51.625 33 
Q 55.609375 28.21875 55.609375 21.1875 
Q 55.609375 10.40625 48.1875 4.484375 
Q 40.765625 -1.421875 27.09375 -1.421875 
Q 22.515625 -1.421875 17.65625 -0.515625 
Q 12.796875 0.390625 7.625 2.203125 
L 7.625 11.71875 
Q 11.71875 9.328125 16.59375 8.109375 
Q 21.484375 6.890625 26.8125 6.890625 
Q 36.078125 6.890625 40.9375 10.546875 
Q 45.796875 14.203125 45.796875 21.1875 
Q 45.796875 27.640625 41.28125 31.265625 
Q 36.765625 34.90625 28.71875 34.90625 
L 20.21875 34.90625 
L 20.21875 43.015625 
L 29.109375 43.015625 
Q 36.375 43.015625 40.234375 45.921875 
Q 44.09375 48.828125 44.09375 54.296875 
Q 44.09375 59.90625 40.109375 62.90625 
Q 36.140625 65.921875 28.71875 65.921875 
Q 24.65625 65.921875 20.015625 65.03125 
Q 15.375 64.15625 9.8125 62.3125 
L 9.8125 71.09375 
Q 15.4375 72.65625 20.34375 73.4375 
Q 25.25 74.21875 29.59375 74.21875 
Q 40.828125 74.21875 47.359375 69.109375 
Q 53.90625 64.015625 53.90625 55.328125 
Q 53.90625 49.265625 50.4375 45.09375 
Q 46.96875 40.921875 40.578125 39.3125 
z
" id="DejaVuSans-33"/>
     </defs>
     <g transform="translate(121.272139 278.049372)scale(0.1 -0.1)">
      <use xlink:href="#DejaVuSans-30"/>
      <use x="63.623047" xlink:href="#DejaVuSans-2e"/>
      <use x="95.410156" xlink:href="#DejaVuSans-33"/>
     </g>
    </g>
   </g>
   <g id="xtick_3">
    <g id="line2d_4">
     <path d="M 158.627127 261.087025 
L 156.044661 262.823359 
" style="fill:none;stroke:#000000;stroke-linecap:square;stroke-width:0.8;"/>
    </g>
    <g id="text_4">
     <!-- 0.4 -->
     <defs>
      <path d="M 37.796875 64.3125 
L 12.890625 25.390625 
L 37.796875 25.390625 
z
M 35.203125 72.90625 
L 47.609375 72.90625 
L 47.609375 25.390625 
L 58.015625 25.390625 
L 58.015625 17.1875 
L 47.609375 17.1875 
L 47.609375 0 
L 37.796875 0 
L 37.796875 17.1875 
L 4.890625 17.1875 
L 4.890625 26.703125 
z
" id="DejaVuSans-34"/>
     </defs>
     <g transform="translate(142.49122 283.313141)scale(0.1 -0.1)">
      <use xlink:href="#DejaVuSans-30"/>
      <use x="63.623047" xlink:href="#DejaVuSans-2e"/>
      <use x="95.410156" xlink:href="#DejaVuSans-34"/>
     </g>
    </g>
   </g>
   <g id="xtick_4">
    <g id="line2d_5">
     <path d="M 180.080717 266.314386 
L 177.524252 268.070512 
" style="fill:none;stroke:#000000;stroke-linecap:square;stroke-width:0.8;"/>
    </g>
    <g id="text_5">
     <!-- 0.5 -->
     <defs>
      <path d="M 10.796875 72.90625 
L 49.515625 72.90625 
L 49.515625 64.59375 
L 19.828125 64.59375 
L 19.828125 46.734375 
Q 21.96875 47.46875 24.109375 47.828125 
Q 26.265625 48.1875 28.421875 48.1875 
Q 40.625 48.1875 47.75 41.5 
Q 54.890625 34.8125 54.890625 23.390625 
Q 54.890625 11.625 47.5625 5.09375 
Q 40.234375 -1.421875 26.90625 -1.421875 
Q 22.3125 -1.421875 17.546875 -0.640625 
Q 12.796875 0.140625 7.71875 1.703125 
L 7.71875 11.625 
Q 12.109375 9.234375 16.796875 8.0625 
Q 21.484375 6.890625 26.703125 6.890625 
Q 35.15625 6.890625 40.078125 11.328125 
Q 45.015625 15.765625 45.015625 23.390625 
Q 45.015625 31 40.078125 35.4375 
Q 35.15625 39.890625 26.703125 39.890625 
Q 22.75 39.890625 18.8125 39.015625 
Q 14.890625 38.140625 10.796875 36.28125 
z
" id="DejaVuSans-35"/>
     </defs>
     <g transform="translate(163.951865 288.636836)scale(0.1 -0.1)">
      <use xlink:href="#DejaVuSans-30"/>
      <use x="63.623047" xlink:href="#DejaVuSans-2e"/>
      <use x="95.410156" xlink:href="#DejaVuSans-35"/>
     </g>
    </g>
   </g>
   <g id="xtick_5">
    <g id="line2d_6">
     <path d="M 201.779324 271.601447 
L 199.249625 273.377706 
" style="fill:none;stroke:#000000;stroke-linecap:square;stroke-width:0.8;"/>
    </g>
    <g id="text_6">
     <!-- 0.6 -->
     <defs>
      <path d="M 33.015625 40.375 
Q 26.375 40.375 22.484375 35.828125 
Q 18.609375 31.296875 18.609375 23.390625 
Q 18.609375 15.53125 22.484375 10.953125 
Q 26.375 6.390625 33.015625 6.390625 
Q 39.65625 6.390625 43.53125 10.953125 
Q 47.40625 15.53125 47.40625 23.390625 
Q 47.40625 31.296875 43.53125 35.828125 
Q 39.65625 40.375 33.015625 40.375 
z
M 52.59375 71.296875 
L 52.59375 62.3125 
Q 48.875 64.0625 45.09375 64.984375 
Q 41.3125 65.921875 37.59375 65.921875 
Q 27.828125 65.921875 22.671875 59.328125 
Q 17.53125 52.734375 16.796875 39.40625 
Q 19.671875 43.65625 24.015625 45.921875 
Q 28.375 48.1875 33.59375 48.1875 
Q 44.578125 48.1875 50.953125 41.515625 
Q 57.328125 34.859375 57.328125 23.390625 
Q 57.328125 12.15625 50.6875 5.359375 
Q 44.046875 -1.421875 33.015625 -1.421875 
Q 20.359375 -1.421875 13.671875 8.265625 
Q 6.984375 17.96875 6.984375 36.375 
Q 6.984375 53.65625 15.1875 63.9375 
Q 23.390625 74.21875 37.203125 74.21875 
Q 40.921875 74.21875 44.703125 73.484375 
Q 48.484375 72.75 52.59375 71.296875 
z
" id="DejaVuSans-36"/>
     </defs>
     <g transform="translate(185.658224 294.021483)scale(0.1 -0.1)">
      <use xlink:href="#DejaVuSans-30"/>
      <use x="63.623047" xlink:href="#DejaVuSans-2e"/>
      <use x="95.410156" xlink:href="#DejaVuSans-36"/>
     </g>
    </g>
   </g>
   <g id="xtick_6">
    <g id="line2d_7">
     <path d="M 223.727169 276.949237 
L 221.225022 278.745977 
" style="fill:none;stroke:#000000;stroke-linecap:square;stroke-width:0.8;"/>
    </g>
    <g id="text_7">
     <!-- 0.7 -->
     <defs>
      <path d="M 8.203125 72.90625 
L 55.078125 72.90625 
L 55.078125 68.703125 
L 28.609375 0 
L 18.3125 0 
L 43.21875 64.59375 
L 8.203125 64.59375 
z
" id="DejaVuSans-37"/>
     </defs>
     <g transform="translate(207.614541 299.468137)scale(0.1 -0.1)">
      <use xlink:href="#DejaVuSans-30"/>
      <use x="63.623047" xlink:href="#DejaVuSans-2e"/>
      <use x="95.410156" xlink:href="#DejaVuSans-37"/>
     </g>
    </g>
   </g>
   <g id="xtick_7">
    <g id="line2d_8">
     <path d="M 245.928571 282.358809 
L 243.454784 284.176386 
" style="fill:none;stroke:#000000;stroke-linecap:square;stroke-width:0.8;"/>
    </g>
    <g id="text_8">
     <!-- 0.8 -->
     <defs>
      <path d="M 31.78125 34.625 
Q 24.75 34.625 20.71875 30.859375 
Q 16.703125 27.09375 16.703125 20.515625 
Q 16.703125 13.921875 20.71875 10.15625 
Q 24.75 6.390625 31.78125 6.390625 
Q 38.8125 6.390625 42.859375 10.171875 
Q 46.921875 13.96875 46.921875 20.515625 
Q 46.921875 27.09375 42.890625 30.859375 
Q 38.875 34.625 31.78125 34.625 
z
M 21.921875 38.8125 
Q 15.578125 40.375 12.03125 44.71875 
Q 8.5 49.078125 8.5 55.328125 
Q 8.5 64.0625 14.71875 69.140625 
Q 20.953125 74.21875 31.78125 74.21875 
Q 42.671875 74.21875 48.875 69.140625 
Q 55.078125 64.0625 55.078125 55.328125 
Q 55.078125 49.078125 51.53125 44.71875 
Q 48 40.375 41.703125 38.8125 
Q 48.828125 37.15625 52.796875 32.3125 
Q 56.78125 27.484375 56.78125 20.515625 
Q 56.78125 9.90625 50.3125 4.234375 
Q 43.84375 -1.421875 31.78125 -1.421875 
Q 19.734375 -1.421875 13.25 4.234375 
Q 6.78125 9.90625 6.78125 20.515625 
Q 6.78125 27.484375 10.78125 32.3125 
Q 14.796875 37.15625 21.921875 38.8125 
z
M 18.3125 54.390625 
Q 18.3125 48.734375 21.84375 45.5625 
Q 25.390625 42.390625 31.78125 42.390625 
Q 38.140625 42.390625 41.71875 45.5625 
Q 45.3125 48.734375 45.3125 54.390625 
Q 45.3125 60.0625 41.71875 63.234375 
Q 38.140625 66.40625 31.78125 66.40625 
Q 25.390625 66.40625 21.84375 63.234375 
Q 18.3125 60.0625 18.3125 54.390625 
z
" id="DejaVuSans-38"/>
     </defs>
     <g transform="translate(229.825157 304.977875)scale(0.1 -0.1)">
      <use xlink:href="#DejaVuSans-30"/>
      <use x="63.623047" xlink:href="#DejaVuSans-2e"/>
      <use x="95.410156" xlink:href="#DejaVuSans-38"/>
     </g>
    </g>
   </g>
   <g id="xtick_8">
    <g id="line2d_9">
     <path d="M 268.387949 287.831239 
L 265.943353 289.670018 
" style="fill:none;stroke:#000000;stroke-linecap:square;stroke-width:0.8;"/>
    </g>
    <g id="text_9">
     <!-- 0.9 -->
     <defs>
      <path d="M 10.984375 1.515625 
L 10.984375 10.5 
Q 14.703125 8.734375 18.5 7.8125 
Q 22.3125 6.890625 25.984375 6.890625 
Q 35.75 6.890625 40.890625 13.453125 
Q 46.046875 20.015625 46.78125 33.40625 
Q 43.953125 29.203125 39.59375 26.953125 
Q 35.25 24.703125 29.984375 24.703125 
Q 19.046875 24.703125 12.671875 31.3125 
Q 6.296875 37.9375 6.296875 49.421875 
Q 6.296875 60.640625 12.9375 67.421875 
Q 19.578125 74.21875 30.609375 74.21875 
Q 43.265625 74.21875 49.921875 64.515625 
Q 56.59375 54.828125 56.59375 36.375 
Q 56.59375 19.140625 48.40625 8.859375 
Q 40.234375 -1.421875 26.421875 -1.421875 
Q 22.703125 -1.421875 18.890625 -0.6875 
Q 15.09375 0.046875 10.984375 1.515625 
z
M 30.609375 32.421875 
Q 37.25 32.421875 41.125 36.953125 
Q 45.015625 41.5 45.015625 49.421875 
Q 45.015625 57.28125 41.125 61.84375 
Q 37.25 66.40625 30.609375 66.40625 
Q 23.96875 66.40625 20.09375 61.84375 
Q 16.21875 57.28125 16.21875 49.421875 
Q 16.21875 41.5 20.09375 36.953125 
Q 23.96875 32.421875 30.609375 32.421875 
z
" id="DejaVuSans-39"/>
     </defs>
     <g transform="translate(252.294518 310.551799)scale(0.1 -0.1)">
      <use xlink:href="#DejaVuSans-30"/>
      <use x="63.623047" xlink:href="#DejaVuSans-2e"/>
      <use x="95.410156" xlink:href="#DejaVuSans-39"/>
     </g>
    </g>
   </g>
  </g>
  <g id="axis3d_2">
   <g id="line2d_10">
    <path d="M 372.72135 220.013954 
L 279.143747 291.264825 
" style="fill:none;stroke:#000000;stroke-linecap:square;stroke-width:0.8;"/>
   </g>
   <g id="text_10">
    <!-- traversability -&gt; maximum_slope  -->
    <defs>
     <path d="M 2.984375 54.6875 
L 12.5 54.6875 
L 29.59375 8.796875 
L 46.6875 54.6875 
L 56.203125 54.6875 
L 35.6875 0 
L 23.484375 0 
z
" id="DejaVuSans-76"/>
     <path d="M 48.6875 27.296875 
Q 48.6875 37.203125 44.609375 42.84375 
Q 40.53125 48.484375 33.40625 48.484375 
Q 26.265625 48.484375 22.1875 42.84375 
Q 18.109375 37.203125 18.109375 27.296875 
Q 18.109375 17.390625 22.1875 11.75 
Q 26.265625 6.109375 33.40625 6.109375 
Q 40.53125 6.109375 44.609375 11.75 
Q 48.6875 17.390625 48.6875 27.296875 
z
M 18.109375 46.390625 
Q 20.953125 51.265625 25.265625 53.625 
Q 29.59375 56 35.59375 56 
Q 45.5625 56 51.78125 48.09375 
Q 58.015625 40.1875 58.015625 27.296875 
Q 58.015625 14.40625 51.78125 6.484375 
Q 45.5625 -1.421875 35.59375 -1.421875 
Q 29.59375 -1.421875 25.265625 0.953125 
Q 20.953125 3.328125 18.109375 8.203125 
L 18.109375 0 
L 9.078125 0 
L 9.078125 75.984375 
L 18.109375 75.984375 
z
" id="DejaVuSans-62"/>
     <path d="M 32.171875 -5.078125 
Q 28.375 -14.84375 24.75 -17.8125 
Q 21.140625 -20.796875 15.09375 -20.796875 
L 7.90625 -20.796875 
L 7.90625 -13.28125 
L 13.1875 -13.28125 
Q 16.890625 -13.28125 18.9375 -11.515625 
Q 21 -9.765625 23.484375 -3.21875 
L 25.09375 0.875 
L 2.984375 54.6875 
L 12.5 54.6875 
L 29.59375 11.921875 
L 46.6875 54.6875 
L 56.203125 54.6875 
z
" id="DejaVuSans-79"/>
     <path d="M 54.890625 54.6875 
L 35.109375 28.078125 
L 55.90625 0 
L 45.3125 0 
L 29.390625 21.484375 
L 13.484375 0 
L 2.875 0 
L 24.125 28.609375 
L 4.6875 54.6875 
L 15.28125 54.6875 
L 29.78125 35.203125 
L 44.28125 54.6875 
z
" id="DejaVuSans-78"/>
     <path d="M 8.5 21.578125 
L 8.5 54.6875 
L 17.484375 54.6875 
L 17.484375 21.921875 
Q 17.484375 14.15625 20.5 10.265625 
Q 23.53125 6.390625 29.59375 6.390625 
Q 36.859375 6.390625 41.078125 11.03125 
Q 45.3125 15.671875 45.3125 23.6875 
L 45.3125 54.6875 
L 54.296875 54.6875 
L 54.296875 0 
L 45.3125 0 
L 45.3125 8.40625 
Q 42.046875 3.421875 37.71875 1 
Q 33.40625 -1.421875 27.6875 -1.421875 
Q 18.265625 -1.421875 13.375 4.4375 
Q 8.5 10.296875 8.5 21.578125 
z
M 31.109375 56 
z
" id="DejaVuSans-75"/>
    </defs>
    <g transform="translate(288.435825 333.29585)rotate(-37.285988)scale(0.1 -0.1)">
     <use xlink:href="#DejaVuSans-74"/>
     <use x="39.208984" xlink:href="#DejaVuSans-72"/>
     <use x="80.322266" xlink:href="#DejaVuSans-61"/>
     <use x="141.601562" xlink:href="#DejaVuSans-76"/>
     <use x="200.78125" xlink:href="#DejaVuSans-65"/>
     <use x="262.304688" xlink:href="#DejaVuSans-72"/>
     <use x="303.417969" xlink:href="#DejaVuSans-73"/>
     <use x="355.517578" xlink:href="#DejaVuSans-61"/>
     <use x="416.796875" xlink:href="#DejaVuSans-62"/>
     <use x="480.273438" xlink:href="#DejaVuSans-69"/>
     <use x="508.056641" xlink:href="#DejaVuSans-6c"/>
     <use x="535.839844" xlink:href="#DejaVuSans-69"/>
     <use x="563.623047" xlink:href="#DejaVuSans-74"/>
     <use x="602.832031" xlink:href="#DejaVuSans-79"/>
     <use x="662.011719" xlink:href="#DejaVuSans-20"/>
     <use x="693.798828" xlink:href="#DejaVuSans-2d"/>
     <use x="729.882812" xlink:href="#DejaVuSans-3e"/>
     <use x="813.671875" xlink:href="#DejaVuSans-20"/>
     <use x="845.458984" xlink:href="#DejaVuSans-6d"/>
     <use x="942.871094" xlink:href="#DejaVuSans-61"/>
     <use x="1004.150391" xlink:href="#DejaVuSans-78"/>
     <use x="1063.330078" xlink:href="#DejaVuSans-69"/>
     <use x="1091.113281" xlink:href="#DejaVuSans-6d"/>
     <use x="1188.525391" xlink:href="#DejaVuSans-75"/>
     <use x="1251.904297" xlink:href="#DejaVuSans-6d"/>
     <use x="1349.316406" xlink:href="#DejaVuSans-5f"/>
     <use x="1399.316406" xlink:href="#DejaVuSans-73"/>
     <use x="1451.416016" xlink:href="#DejaVuSans-6c"/>
     <use x="1479.199219" xlink:href="#DejaVuSans-6f"/>
     <use x="1540.380859" xlink:href="#DejaVuSans-70"/>
     <use x="1603.857422" xlink:href="#DejaVuSans-65"/>
     <use x="1665.380859" xlink:href="#DejaVuSans-20"/>
    </g>
   </g>
   <g id="Line3DCollection_2">
    <path d="M 116.043656 107.435785 
L 122.410492 237.63162 
L 295.181681 279.05339 
" style="fill:none;stroke:#b0b0b0;stroke-width:0.8;"/>
    <path d="M 137.758006 95.639527 
L 142.941477 224.525841 
L 314.007554 264.719193 
" style="fill:none;stroke:#b0b0b0;stroke-width:0.8;"/>
    <path d="M 158.814542 84.200625 
L 162.881278 211.797439 
L 332.267067 250.816227 
" style="fill:none;stroke:#b0b0b0;stroke-width:0.8;"/>
    <path d="M 179.24271 73.103083 
L 182.255068 199.430346 
L 349.985398 237.325322 
" style="fill:none;stroke:#b0b0b0;stroke-width:0.8;"/>
    <path d="M 199.070224 62.331844 
L 201.086609 187.409393 
L 367.186258 224.228425 
" style="fill:none;stroke:#b0b0b0;stroke-width:0.8;"/>
   </g>
   <g id="xtick_9">
    <g id="line2d_11">
     <path d="M 293.736233 278.706845 
L 298.075784 279.747249 
" style="fill:none;stroke:#000000;stroke-linecap:square;stroke-width:0.8;"/>
    </g>
    <g id="text_11">
     <!-- 0.6 -->
     <g transform="translate(299.826169 298.719081)scale(0.1 -0.1)">
      <use xlink:href="#DejaVuSans-30"/>
      <use x="63.623047" xlink:href="#DejaVuSans-2e"/>
      <use x="95.410156" xlink:href="#DejaVuSans-36"/>
     </g>
    </g>
   </g>
   <g id="xtick_10">
    <g id="line2d_12">
     <path d="M 312.577327 264.38315 
L 316.87113 265.392013 
" style="fill:none;stroke:#000000;stroke-linecap:square;stroke-width:0.8;"/>
    </g>
    <g id="text_12">
     <!-- 0.7 -->
     <g transform="translate(318.450396 284.207827)scale(0.1 -0.1)">
      <use xlink:href="#DejaVuSans-30"/>
      <use x="63.623047" xlink:href="#DejaVuSans-2e"/>
      <use x="95.410156" xlink:href="#DejaVuSans-37"/>
     </g>
    </g>
   </g>
   <g id="xtick_11">
    <g id="line2d_13">
     <path d="M 330.851807 250.490216 
L 335.10063 251.468952 
" style="fill:none;stroke:#000000;stroke-linecap:square;stroke-width:0.8;"/>
    </g>
    <g id="text_13">
     <!-- 0.8 -->
     <g transform="translate(336.514604 270.132917)scale(0.1 -0.1)">
      <use xlink:href="#DejaVuSans-30"/>
      <use x="63.623047" xlink:href="#DejaVuSans-2e"/>
      <use x="95.410156" xlink:href="#DejaVuSans-38"/>
     </g>
    </g>
   </g>
   <g id="xtick_12">
    <g id="line2d_14">
     <path d="M 348.584853 237.0089 
L 352.789457 237.958837 
" style="fill:none;stroke:#000000;stroke-linecap:square;stroke-width:0.8;"/>
    </g>
    <g id="text_14">
     <!-- 0.9 -->
     <g transform="translate(354.043679 256.474962)scale(0.1 -0.1)">
      <use xlink:href="#DejaVuSans-30"/>
      <use x="63.623047" xlink:href="#DejaVuSans-2e"/>
      <use x="95.410156" xlink:href="#DejaVuSans-39"/>
     </g>
    </g>
   </g>
   <g id="xtick_13">
    <g id="line2d_15">
     <path d="M 365.800177 223.921175 
L 369.961313 224.843567 
" style="fill:none;stroke:#000000;stroke-linecap:square;stroke-width:0.8;"/>
    </g>
    <g id="text_15">
     <!-- 1.0 -->
     <defs>
      <path d="M 12.40625 8.296875 
L 28.515625 8.296875 
L 28.515625 63.921875 
L 10.984375 60.40625 
L 10.984375 69.390625 
L 28.421875 72.90625 
L 38.28125 72.90625 
L 38.28125 8.296875 
L 54.390625 8.296875 
L 54.390625 0 
L 12.40625 0 
z
" id="DejaVuSans-31"/>
     </defs>
     <g transform="translate(371.061053 243.215704)scale(0.1 -0.1)">
      <use xlink:href="#DejaVuSans-31"/>
      <use x="63.623047" xlink:href="#DejaVuSans-2e"/>
      <use x="95.410156" xlink:href="#DejaVuSans-30"/>
     </g>
    </g>
   </g>
  </g>
  <g id="axis3d_3">
   <g id="line2d_16">
    <path d="M 372.72135 220.013954 
L 379.648599 91.582742 
" style="fill:none;stroke:#000000;stroke-linecap:square;stroke-width:0.8;"/>
   </g>
   <g id="text_16">
    <!-- Performance -->
    <defs>
     <path d="M 19.671875 64.796875 
L 19.671875 37.40625 
L 32.078125 37.40625 
Q 38.96875 37.40625 42.71875 40.96875 
Q 46.484375 44.53125 46.484375 51.125 
Q 46.484375 57.671875 42.71875 61.234375 
Q 38.96875 64.796875 32.078125 64.796875 
z
M 9.8125 72.90625 
L 32.078125 72.90625 
Q 44.34375 72.90625 50.609375 67.359375 
Q 56.890625 61.8125 56.890625 51.125 
Q 56.890625 40.328125 50.609375 34.8125 
Q 44.34375 29.296875 32.078125 29.296875 
L 19.671875 29.296875 
L 19.671875 0 
L 9.8125 0 
z
" id="DejaVuSans-50"/>
     <path d="M 37.109375 75.984375 
L 37.109375 68.5 
L 28.515625 68.5 
Q 23.6875 68.5 21.796875 66.546875 
Q 19.921875 64.59375 19.921875 59.515625 
L 19.921875 54.6875 
L 34.71875 54.6875 
L 34.71875 47.703125 
L 19.921875 47.703125 
L 19.921875 0 
L 10.890625 0 
L 10.890625 47.703125 
L 2.296875 47.703125 
L 2.296875 54.6875 
L 10.890625 54.6875 
L 10.890625 58.5 
Q 10.890625 67.625 15.140625 71.796875 
Q 19.390625 75.984375 28.609375 75.984375 
z
" id="DejaVuSans-66"/>
     <path d="M 48.78125 52.59375 
L 48.78125 44.1875 
Q 44.96875 46.296875 41.140625 47.34375 
Q 37.3125 48.390625 33.40625 48.390625 
Q 24.65625 48.390625 19.8125 42.84375 
Q 14.984375 37.3125 14.984375 27.296875 
Q 14.984375 17.28125 19.8125 11.734375 
Q 24.65625 6.203125 33.40625 6.203125 
Q 37.3125 6.203125 41.140625 7.25 
Q 44.96875 8.296875 48.78125 10.40625 
L 48.78125 2.09375 
Q 45.015625 0.34375 40.984375 -0.53125 
Q 36.96875 -1.421875 32.421875 -1.421875 
Q 20.0625 -1.421875 12.78125 6.34375 
Q 5.515625 14.109375 5.515625 27.296875 
Q 5.515625 40.671875 12.859375 48.328125 
Q 20.21875 56 33.015625 56 
Q 37.15625 56 41.109375 55.140625 
Q 45.0625 54.296875 48.78125 52.59375 
z
" id="DejaVuSans-63"/>
    </defs>
    <g transform="translate(417.874666 185.425816)rotate(-86.912605)scale(0.1 -0.1)">
     <use xlink:href="#DejaVuSans-50"/>
     <use x="60.255859" xlink:href="#DejaVuSans-65"/>
     <use x="121.779297" xlink:href="#DejaVuSans-72"/>
     <use x="162.892578" xlink:href="#DejaVuSans-66"/>
     <use x="198.097656" xlink:href="#DejaVuSans-6f"/>
     <use x="259.279297" xlink:href="#DejaVuSans-72"/>
     <use x="300.376953" xlink:href="#DejaVuSans-6d"/>
     <use x="397.789062" xlink:href="#DejaVuSans-61"/>
     <use x="459.068359" xlink:href="#DejaVuSans-6e"/>
     <use x="522.447266" xlink:href="#DejaVuSans-63"/>
     <use x="577.427734" xlink:href="#DejaVuSans-65"/>
    </g>
   </g>
   <g id="Line3DCollection_3">
    <path d="M 372.853105 217.571211 
L 207.118952 181.161682 
L 104.801255 246.28962 
" style="fill:none;stroke:#b0b0b0;stroke-width:0.8;"/>
    <path d="M 374.131495 193.86986 
L 206.804383 158.11513 
L 103.437349 222.092097 
" style="fill:none;stroke:#b0b0b0;stroke-width:0.8;"/>
    <path d="M 375.434914 169.704464 
L 206.483915 134.636433 
L 102.045847 197.404988 
" style="fill:none;stroke:#b0b0b0;stroke-width:0.8;"/>
    <path d="M 376.764105 145.061259 
L 206.157382 110.713324 
L 100.625903 172.213284 
" style="fill:none;stroke:#b0b0b0;stroke-width:0.8;"/>
    <path d="M 378.11984 119.925933 
L 205.824608 86.333062 
L 99.176637 146.501354 
" style="fill:none;stroke:#b0b0b0;stroke-width:0.8;"/>
    <path d="M 379.502921 94.283596 
L 205.485415 61.482418 
L 97.69713 120.252914 
" style="fill:none;stroke:#b0b0b0;stroke-width:0.8;"/>
   </g>
   <g id="xtick_14">
    <g id="line2d_17">
     <path d="M 371.47029 217.267425 
L 375.621611 218.179414 
" style="fill:none;stroke:#000000;stroke-linecap:square;stroke-width:0.8;"/>
    </g>
    <g id="text_17">
     <!-- 0.0 -->
     <g transform="translate(383.25137 223.203694)scale(0.1 -0.1)">
      <use xlink:href="#DejaVuSans-30"/>
      <use x="63.623047" xlink:href="#DejaVuSans-2e"/>
      <use x="95.410156" xlink:href="#DejaVuSans-30"/>
     </g>
    </g>
   </g>
   <g id="xtick_15">
    <g id="line2d_18">
     <path d="M 372.734832 193.571419 
L 376.927754 194.467369 
" style="fill:none;stroke:#000000;stroke-linecap:square;stroke-width:0.8;"/>
    </g>
    <g id="text_18">
     <!-- 0.2 -->
     <g transform="translate(384.704357 199.536964)scale(0.1 -0.1)">
      <use xlink:href="#DejaVuSans-30"/>
      <use x="63.623047" xlink:href="#DejaVuSans-2e"/>
      <use x="95.410156" xlink:href="#DejaVuSans-32"/>
     </g>
    </g>
   </g>
   <g id="xtick_16">
    <g id="line2d_19">
     <path d="M 374.024123 169.411635 
L 378.259488 170.290742 
" style="fill:none;stroke:#000000;stroke-linecap:square;stroke-width:0.8;"/>
    </g>
    <g id="text_19">
     <!-- 0.4 -->
     <g transform="translate(386.185727 175.407926)scale(0.1 -0.1)">
      <use xlink:href="#DejaVuSans-30"/>
      <use x="63.623047" xlink:href="#DejaVuSans-2e"/>
      <use x="95.410156" xlink:href="#DejaVuSans-34"/>
     </g>
    </g>
   </g>
   <g id="xtick_17">
    <g id="line2d_20">
     <path d="M 375.338898 144.774325 
L 379.617572 145.635742 
" style="fill:none;stroke:#000000;stroke-linecap:square;stroke-width:0.8;"/>
    </g>
    <g id="text_20">
     <!-- 0.6 -->
     <g transform="translate(387.69632 150.802899)scale(0.1 -0.1)">
      <use xlink:href="#DejaVuSans-30"/>
      <use x="63.623047" xlink:href="#DejaVuSans-2e"/>
      <use x="95.410156" xlink:href="#DejaVuSans-36"/>
     </g>
    </g>
   </g>
   <g id="xtick_18">
    <g id="line2d_21">
     <path d="M 376.679919 119.645188 
L 381.002797 120.488031 
" style="fill:none;stroke:#000000;stroke-linecap:square;stroke-width:0.8;"/>
    </g>
    <g id="text_21">
     <!-- 0.8 -->
     <g transform="translate(389.237008 125.707658)scale(0.1 -0.1)">
      <use xlink:href="#DejaVuSans-30"/>
      <use x="63.623047" xlink:href="#DejaVuSans-2e"/>
      <use x="95.410156" xlink:href="#DejaVuSans-38"/>
     </g>
    </g>
   </g>
   <g id="xtick_19">
    <g id="line2d_22">
     <path d="M 378.04798 94.009349 
L 382.415984 94.832689 
" style="fill:none;stroke:#000000;stroke-linecap:square;stroke-width:0.8;"/>
    </g>
    <g id="text_22">
     <!-- 1.0 -->
     <g transform="translate(390.808701 100.107407)scale(0.1 -0.1)">
      <use xlink:href="#DejaVuSans-31"/>
      <use x="63.623047" xlink:href="#DejaVuSans-2e"/>
      <use x="95.410156" xlink:href="#DejaVuSans-30"/>
     </g>
    </g>
   </g>
  </g>
  <g id="axes_1">
   <g id="Path3DCollection_1">
    <defs>
     <path d="M 0 7.905694 
C 2.096615 7.905694 4.10764 7.0727 5.59017 5.59017 
C 7.0727 4.10764 7.905694 2.096615 7.905694 0 
C 7.905694 -2.096615 7.0727 -4.10764 5.59017 -5.59017 
C 4.10764 -7.0727 2.096615 -7.905694 0 -7.905694 
C -2.096615 -7.905694 -4.10764 -7.0727 -5.59017 -5.59017 
C -7.0727 -4.10764 -7.905694 -2.096615 -7.905694 0 
C -7.905694 2.096615 -7.0727 4.10764 -5.59017 5.59017 
C -4.10764 7.0727 -2.096615 7.905694 0 7.905694 
z
" id="C0_0_7cd954252b"/>
    </defs>
    <g clip-path="url(#p12e98627a6)">
     <use style="fill:#1f77b4;fill-opacity:0.542143;stroke:#1f77b4;stroke-opacity:0.542143;" x="358.84826" xlink:href="#C0_0_7cd954252b" y="165.41459"/>
    </g>
    <g clip-path="url(#p12e98627a6)">
     <use style="fill:#1f77b4;fill-opacity:0.801202;stroke:#1f77b4;stroke-opacity:0.801202;" x="313.619657" xlink:href="#C0_0_7cd954252b" y="197.330956"/>
    </g>
    <g clip-path="url(#p12e98627a6)">
     <use style="fill:#1f77b4;fill-opacity:0.500546;stroke:#1f77b4;stroke-opacity:0.500546;" x="202.235725" xlink:href="#C0_0_7cd954252b" y="145.172294"/>
    </g>
    <g clip-path="url(#p12e98627a6)">
     <use style="fill:#1f77b4;fill-opacity:0.68355;stroke:#1f77b4;stroke-opacity:0.68355;" x="183.81295" xlink:href="#C0_0_7cd954252b" y="195.780338"/>
    </g>
    <g clip-path="url(#p12e98627a6)">
     <use style="fill:#1f77b4;fill-opacity:0.507955;stroke:#1f77b4;stroke-opacity:0.507955;" x="337.006427" xlink:href="#C0_0_7cd954252b" y="159.887752"/>
    </g>
    <g clip-path="url(#p12e98627a6)">
     <use style="fill:#1f77b4;fill-opacity:0.396862;stroke:#1f77b4;stroke-opacity:0.396862;" x="191.332437" xlink:href="#C0_0_7cd954252b" y="142.212707"/>
    </g>
    <g clip-path="url(#p12e98627a6)">
     <use style="fill:#1f77b4;fill-opacity:0.794518;stroke:#1f77b4;stroke-opacity:0.794518;" x="227.192483" xlink:href="#C0_0_7cd954252b" y="193.872816"/>
    </g>
    <g clip-path="url(#p12e98627a6)">
     <use style="fill:#1f77b4;fill-opacity:0.777106;stroke:#1f77b4;stroke-opacity:0.777106;" x="173.107465" xlink:href="#C0_0_7cd954252b" y="187.645134"/>
    </g>
    <g clip-path="url(#p12e98627a6)">
     <use style="fill:#1f77b4;fill-opacity:0.679095;stroke:#1f77b4;stroke-opacity:0.679095;" x="130.495929" xlink:href="#C0_0_7cd954252b" y="185.149925"/>
    </g>
    <g clip-path="url(#p12e98627a6)">
     <use style="fill:#1f77b4;fill-opacity:0.737867;stroke:#1f77b4;stroke-opacity:0.737867;" x="119.678556" xlink:href="#C0_0_7cd954252b" y="189.312409"/>
    </g>
    <g clip-path="url(#p12e98627a6)">
     <use style="fill:#1f77b4;fill-opacity:0.812875;stroke:#1f77b4;stroke-opacity:0.812875;" x="162.782756" xlink:href="#C0_0_7cd954252b" y="200.62081"/>
    </g>
    <g clip-path="url(#p12e98627a6)">
     <use style="fill:#1f77b4;fill-opacity:0.696259;stroke:#1f77b4;stroke-opacity:0.696259;" x="215.354559" xlink:href="#C0_0_7cd954252b" y="184.671872"/>
    </g>
    <g clip-path="url(#p12e98627a6)">
     <use style="fill:#1f77b4;fill-opacity:0.426723;stroke:#1f77b4;stroke-opacity:0.426723;" x="242.489779" xlink:href="#C0_0_7cd954252b" y="142.510259"/>
    </g>
    <g clip-path="url(#p12e98627a6)">
     <use style="fill:#1f77b4;fill-opacity:0.963736;stroke:#1f77b4;stroke-opacity:0.963736;" x="251.86222" xlink:href="#C0_0_7cd954252b" y="225.41738"/>
    </g>
    <g clip-path="url(#p12e98627a6)">
     <use style="fill:#1f77b4;fill-opacity:0.603089;stroke:#1f77b4;stroke-opacity:0.603089;" x="203.833856" xlink:href="#C0_0_7cd954252b" y="174.862984"/>
    </g>
    <g clip-path="url(#p12e98627a6)">
     <use style="fill:#1f77b4;fill-opacity:0.736965;stroke:#1f77b4;stroke-opacity:0.736965;" x="151.53037" xlink:href="#C0_0_7cd954252b" y="183.073507"/>
    </g>
    <g clip-path="url(#p12e98627a6)">
     <use style="fill:#1f77b4;fill-opacity:0.579451;stroke:#1f77b4;stroke-opacity:0.579451;" x="182.495817" xlink:href="#C0_0_7cd954252b" y="165.093245"/>
    </g>
    <g clip-path="url(#p12e98627a6)">
     <use style="fill:#1f77b4;fill-opacity:0.528119;stroke:#1f77b4;stroke-opacity:0.528119;" x="327.730342" xlink:href="#C0_0_7cd954252b" y="177.007857"/>
    </g>
    <g clip-path="url(#p12e98627a6)">
     <use style="fill:#1f77b4;fill-opacity:0.694983;stroke:#1f77b4;stroke-opacity:0.694983;" x="332.121633" xlink:href="#C0_0_7cd954252b" y="184.354718"/>
    </g>
    <g clip-path="url(#p12e98627a6)">
     <use style="fill:#1f77b4;fill-opacity:0.537841;stroke:#1f77b4;stroke-opacity:0.537841;" x="266.024578" xlink:href="#C0_0_7cd954252b" y="186.137673"/>
    </g>
    <g clip-path="url(#p12e98627a6)">
     <use style="fill:#1f77b4;fill-opacity:0.820121;stroke:#1f77b4;stroke-opacity:0.820121;" x="281.597113" xlink:href="#C0_0_7cd954252b" y="197.267394"/>
    </g>
    <g clip-path="url(#p12e98627a6)">
     <use style="fill:#1f77b4;fill-opacity:0.427257;stroke:#1f77b4;stroke-opacity:0.427257;" x="293.877759" xlink:href="#C0_0_7cd954252b" y="154.092603"/>
    </g>
    <g clip-path="url(#p12e98627a6)">
     <use style="fill:#1f77b4;fill-opacity:0.701717;stroke:#1f77b4;stroke-opacity:0.701717;" x="268.86506" xlink:href="#C0_0_7cd954252b" y="194.975961"/>
    </g>
    <g clip-path="url(#p12e98627a6)">
     <use style="fill:#1f77b4;fill-opacity:0.902191;stroke:#1f77b4;stroke-opacity:0.902191;" x="284.367456" xlink:href="#C0_0_7cd954252b" y="239.769682"/>
    </g>
    <g clip-path="url(#p12e98627a6)">
     <use style="fill:#1f77b4;fill-opacity:0.489971;stroke:#1f77b4;stroke-opacity:0.489971;" x="284.869676" xlink:href="#C0_0_7cd954252b" y="154.744051"/>
    </g>
    <g clip-path="url(#p12e98627a6)">
     <use style="fill:#1f77b4;fill-opacity:0.556783;stroke:#1f77b4;stroke-opacity:0.556783;" x="151.689224" xlink:href="#C0_0_7cd954252b" y="179.89127"/>
    </g>
    <g clip-path="url(#p12e98627a6)">
     <use style="fill:#1f77b4;fill-opacity:0.524953;stroke:#1f77b4;stroke-opacity:0.524953;" x="161.674962" xlink:href="#C0_0_7cd954252b" y="166.983125"/>
    </g>
    <g clip-path="url(#p12e98627a6)">
     <use style="fill:#1f77b4;fill-opacity:0.605932;stroke:#1f77b4;stroke-opacity:0.605932;" x="287.83179" xlink:href="#C0_0_7cd954252b" y="179.485646"/>
    </g>
    <g clip-path="url(#p12e98627a6)">
     <use style="fill:#1f77b4;fill-opacity:0.84969;stroke:#1f77b4;stroke-opacity:0.84969;" x="184.699116" xlink:href="#C0_0_7cd954252b" y="206.825265"/>
    </g>
    <g clip-path="url(#p12e98627a6)">
     <use style="fill:#1f77b4;stroke:#1f77b4;" x="274.726477" xlink:href="#C0_0_7cd954252b" y="232.626951"/>
    </g>
    <g clip-path="url(#p12e98627a6)">
     <use style="fill:#1f77b4;fill-opacity:0.76688;stroke:#1f77b4;stroke-opacity:0.76688;" x="195.273202" xlink:href="#C0_0_7cd954252b" y="210.282457"/>
    </g>
    <g clip-path="url(#p12e98627a6)">
     <use style="fill:#1f77b4;fill-opacity:0.930842;stroke:#1f77b4;stroke-opacity:0.930842;" x="229.223607" xlink:href="#C0_0_7cd954252b" y="217.243895"/>
    </g>
    <g clip-path="url(#p12e98627a6)">
     <use style="fill:#1f77b4;fill-opacity:0.753413;stroke:#1f77b4;stroke-opacity:0.753413;" x="259.186009" xlink:href="#C0_0_7cd954252b" y="201.897488"/>
    </g>
    <g clip-path="url(#p12e98627a6)">
     <use style="fill:#1f77b4;fill-opacity:0.479678;stroke:#1f77b4;stroke-opacity:0.479678;" x="233.004512" xlink:href="#C0_0_7cd954252b" y="146.7483"/>
    </g>
    <g clip-path="url(#p12e98627a6)">
     <use style="fill:#1f77b4;fill-opacity:0.501372;stroke:#1f77b4;stroke-opacity:0.501372;" x="296.635618" xlink:href="#C0_0_7cd954252b" y="193.294698"/>
    </g>
    <g clip-path="url(#p12e98627a6)">
     <use style="fill:#1f77b4;fill-opacity:0.330236;stroke:#1f77b4;stroke-opacity:0.330236;" x="251.751141" xlink:href="#C0_0_7cd954252b" y="155.494115"/>
    </g>
    <g clip-path="url(#p12e98627a6)">
     <use style="fill:#1f77b4;fill-opacity:0.510397;stroke:#1f77b4;stroke-opacity:0.510397;" x="306.252432" xlink:href="#C0_0_7cd954252b" y="165.317209"/>
    </g>
    <g clip-path="url(#p12e98627a6)">
     <use style="fill:#1f77b4;fill-opacity:0.869137;stroke:#1f77b4;stroke-opacity:0.869137;" x="206.934436" xlink:href="#C0_0_7cd954252b" y="219.27338"/>
    </g>
    <g clip-path="url(#p12e98627a6)">
     <use style="fill:#1f77b4;fill-opacity:0.469853;stroke:#1f77b4;stroke-opacity:0.469853;" x="223.533032" xlink:href="#C0_0_7cd954252b" y="174.953838"/>
    </g>
    <g clip-path="url(#p12e98627a6)">
     <use style="fill:#1f77b4;fill-opacity:0.633088;stroke:#1f77b4;stroke-opacity:0.633088;" x="225.307934" xlink:href="#C0_0_7cd954252b" y="182.438378"/>
    </g>
    <g clip-path="url(#p12e98627a6)">
     <use style="fill:#1f77b4;fill-opacity:0.575064;stroke:#1f77b4;stroke-opacity:0.575064;" x="340.159847" xlink:href="#C0_0_7cd954252b" y="202.875025"/>
    </g>
    <g clip-path="url(#p12e98627a6)">
     <use style="fill:#1f77b4;fill-opacity:0.323902;stroke:#1f77b4;stroke-opacity:0.323902;" x="221.813038" xlink:href="#C0_0_7cd954252b" y="164.11192"/>
    </g>
    <g clip-path="url(#p12e98627a6)">
     <use style="fill:#1f77b4;fill-opacity:0.600984;stroke:#1f77b4;stroke-opacity:0.600984;" x="141.430022" xlink:href="#C0_0_7cd954252b" y="188.504124"/>
    </g>
    <g clip-path="url(#p12e98627a6)">
     <use style="fill:#1f77b4;fill-opacity:0.724153;stroke:#1f77b4;stroke-opacity:0.724153;" x="205.402806" xlink:href="#C0_0_7cd954252b" y="200.001982"/>
    </g>
    <g clip-path="url(#p12e98627a6)">
     <use style="fill:#1f77b4;fill-opacity:0.582771;stroke:#1f77b4;stroke-opacity:0.582771;" x="172.822011" xlink:href="#C0_0_7cd954252b" y="188.758639"/>
    </g>
    <g clip-path="url(#p12e98627a6)">
     <use style="fill:#1f77b4;fill-opacity:0.59155;stroke:#1f77b4;stroke-opacity:0.59155;" x="318.896247" xlink:href="#C0_0_7cd954252b" y="178.34392"/>
    </g>
    <g clip-path="url(#p12e98627a6)">
     <use style="fill:#1f77b4;fill-opacity:0.520432;stroke:#1f77b4;stroke-opacity:0.520432;" x="275.515156" xlink:href="#C0_0_7cd954252b" y="167.913381"/>
    </g>
    <g clip-path="url(#p12e98627a6)">
     <use style="fill:#1f77b4;fill-opacity:0.846321;stroke:#1f77b4;stroke-opacity:0.846321;" x="294.046254" xlink:href="#C0_0_7cd954252b" y="233.081253"/>
    </g>
    <g clip-path="url(#p12e98627a6)">
     <use style="fill:#1f77b4;fill-opacity:0.660159;stroke:#1f77b4;stroke-opacity:0.660159;" x="300.177153" xlink:href="#C0_0_7cd954252b" y="203.443852"/>
    </g>
    <g clip-path="url(#p12e98627a6)">
     <use style="fill:#1f77b4;fill-opacity:0.51074;stroke:#1f77b4;stroke-opacity:0.51074;" x="254.216076" xlink:href="#C0_0_7cd954252b" y="153.252517"/>
    </g>
    <g clip-path="url(#p12e98627a6)">
     <use style="fill:#1f77b4;fill-opacity:0.626502;stroke:#1f77b4;stroke-opacity:0.626502;" x="193.997546" xlink:href="#C0_0_7cd954252b" y="191.302026"/>
    </g>
    <g clip-path="url(#p12e98627a6)">
     <use style="fill:#1f77b4;fill-opacity:0.726555;stroke:#1f77b4;stroke-opacity:0.726555;" x="322.69093" xlink:href="#C0_0_7cd954252b" y="198.359435"/>
    </g>
    <g clip-path="url(#p12e98627a6)">
     <use style="fill:#1f77b4;fill-opacity:0.861181;stroke:#1f77b4;stroke-opacity:0.861181;" x="271.792643" xlink:href="#C0_0_7cd954252b" y="208.679598"/>
    </g>
    <g clip-path="url(#p12e98627a6)">
     <use style="fill:#1f77b4;fill-opacity:0.707153;stroke:#1f77b4;stroke-opacity:0.707153;" x="237.188958" xlink:href="#C0_0_7cd954252b" y="199.553974"/>
    </g>
    <g clip-path="url(#p12e98627a6)">
     <use style="fill:#1f77b4;fill-opacity:0.821446;stroke:#1f77b4;stroke-opacity:0.821446;" x="249.378589" xlink:href="#C0_0_7cd954252b" y="203.44198"/>
    </g>
    <g clip-path="url(#p12e98627a6)">
     <use style="fill:#1f77b4;fill-opacity:0.814241;stroke:#1f77b4;stroke-opacity:0.814241;" x="217.176968" xlink:href="#C0_0_7cd954252b" y="212.618179"/>
    </g>
    <g clip-path="url(#p12e98627a6)">
     <use style="fill:#1f77b4;fill-opacity:0.827716;stroke:#1f77b4;stroke-opacity:0.827716;" x="303.900887" xlink:href="#C0_0_7cd954252b" y="213.735914"/>
    </g>
    <g clip-path="url(#p12e98627a6)">
     <use style="fill:#1f77b4;fill-opacity:0.40134;stroke:#1f77b4;stroke-opacity:0.40134;" x="212.198631" xlink:href="#C0_0_7cd954252b" y="158.473218"/>
    </g>
    <g clip-path="url(#p12e98627a6)">
     <use style="fill:#1f77b4;fill-opacity:0.324106;stroke:#1f77b4;stroke-opacity:0.324106;" x="231.087071" xlink:href="#C0_0_7cd954252b" y="140.092778"/>
    </g>
    <g clip-path="url(#p12e98627a6)">
     <use style="fill:#1f77b4;fill-opacity:0.445257;stroke:#1f77b4;stroke-opacity:0.445257;" x="315.062576" xlink:href="#C0_0_7cd954252b" y="165.336201"/>
    </g>
    <g clip-path="url(#p12e98627a6)">
     <use style="fill:#1f77b4;fill-opacity:0.397429;stroke:#1f77b4;stroke-opacity:0.397429;" x="181.948528" xlink:href="#C0_0_7cd954252b" y="166.206319"/>
    </g>
    <g clip-path="url(#p12e98627a6)">
     <use style="fill:#1f77b4;fill-opacity:0.73327;stroke:#1f77b4;stroke-opacity:0.73327;" x="290.951803" xlink:href="#C0_0_7cd954252b" y="202.513648"/>
    </g>
    <g clip-path="url(#p12e98627a6)">
     <use style="fill:#1f77b4;fill-opacity:0.736591;stroke:#1f77b4;stroke-opacity:0.736591;" x="141.670033" xlink:href="#C0_0_7cd954252b" y="208.673261"/>
    </g>
    <g clip-path="url(#p12e98627a6)">
     <use style="fill:#1f77b4;fill-opacity:0.372787;stroke:#1f77b4;stroke-opacity:0.372787;" x="272.630886" xlink:href="#C0_0_7cd954252b" y="156.948167"/>
    </g>
    <g clip-path="url(#p12e98627a6)">
     <use style="fill:#1f77b4;fill-opacity:0.3;stroke:#1f77b4;stroke-opacity:0.3;" x="201.306748" xlink:href="#C0_0_7cd954252b" y="155.624991"/>
    </g>
    <g clip-path="url(#p12e98627a6)">
     <use style="fill:#1f77b4;fill-opacity:0.878128;stroke:#1f77b4;stroke-opacity:0.878128;" x="261.799237" xlink:href="#C0_0_7cd954252b" y="228.739978"/>
    </g>
    <g clip-path="url(#p12e98627a6)">
     <use style="fill:#1f77b4;fill-opacity:0.63068;stroke:#1f77b4;stroke-opacity:0.63068;" x="278.289739" xlink:href="#C0_0_7cd954252b" y="195.469216"/>
    </g>
    <g clip-path="url(#p12e98627a6)">
     <use style="fill:#1f77b4;fill-opacity:0.523668;stroke:#1f77b4;stroke-opacity:0.523668;" x="244.681391" xlink:href="#C0_0_7cd954252b" y="173.063574"/>
    </g>
    <g clip-path="url(#p12e98627a6)">
     <use style="fill:#1f77b4;fill-opacity:0.583354;stroke:#1f77b4;stroke-opacity:0.583354;" x="235.06862" xlink:href="#C0_0_7cd954252b" y="175.711971"/>
    </g>
    <g clip-path="url(#p12e98627a6)">
     <use style="fill:#1f77b4;fill-opacity:0.647876;stroke:#1f77b4;stroke-opacity:0.647876;" x="246.959941" xlink:href="#C0_0_7cd954252b" y="195.694417"/>
    </g>
    <g clip-path="url(#p12e98627a6)">
     <use style="fill:#1f77b4;fill-opacity:0.567139;stroke:#1f77b4;stroke-opacity:0.567139;" x="349.665645" xlink:href="#C0_0_7cd954252b" y="180.932477"/>
    </g>
    <g clip-path="url(#p12e98627a6)">
     <use style="fill:#1f77b4;fill-opacity:0.636834;stroke:#1f77b4;stroke-opacity:0.636834;" x="162.552614" xlink:href="#C0_0_7cd954252b" y="194.003837"/>
    </g>
    <g clip-path="url(#p12e98627a6)">
     <use style="fill:#1f77b4;fill-opacity:0.407359;stroke:#1f77b4;stroke-opacity:0.407359;" x="263.404683" xlink:href="#C0_0_7cd954252b" y="167.925076"/>
    </g>
    <g clip-path="url(#p12e98627a6)">
     <use style="fill:#1f77b4;fill-opacity:0.863931;stroke:#1f77b4;stroke-opacity:0.863931;" x="239.3822" xlink:href="#C0_0_7cd954252b" y="214.401041"/>
    </g>
    <g clip-path="url(#p12e98627a6)">
     <use style="fill:#1f77b4;fill-opacity:0.488492;stroke:#1f77b4;stroke-opacity:0.488492;" x="192.795929" xlink:href="#C0_0_7cd954252b" y="174.280193"/>
    </g>
    <g clip-path="url(#p12e98627a6)">
     <use style="fill:#1f77b4;fill-opacity:0.450044;stroke:#1f77b4;stroke-opacity:0.450044;" x="172.019441" xlink:href="#C0_0_7cd954252b" y="170.564974"/>
    </g>
    <g clip-path="url(#p12e98627a6)">
     <use style="fill:#1f77b4;fill-opacity:0.602675;stroke:#1f77b4;stroke-opacity:0.602675;" x="256.593704" xlink:href="#C0_0_7cd954252b" y="187.116543"/>
    </g>
    <g clip-path="url(#p12e98627a6)">
     <use style="fill:#1f77b4;fill-opacity:0.532632;stroke:#1f77b4;stroke-opacity:0.532632;" x="213.794433" xlink:href="#C0_0_7cd954252b" y="176.089612"/>
    </g>
   </g>
   <g id="text_23">
    <!-- with_obstacles -->
    <defs>
     <path d="M 54.890625 33.015625 
L 54.890625 0 
L 45.90625 0 
L 45.90625 32.71875 
Q 45.90625 40.484375 42.875 44.328125 
Q 39.84375 48.1875 33.796875 48.1875 
Q 26.515625 48.1875 22.3125 43.546875 
Q 18.109375 38.921875 18.109375 30.90625 
L 18.109375 0 
L 9.078125 0 
L 9.078125 75.984375 
L 18.109375 75.984375 
L 18.109375 46.1875 
Q 21.34375 51.125 25.703125 53.5625 
Q 30.078125 56 35.796875 56 
Q 45.21875 56 50.046875 50.171875 
Q 54.890625 44.34375 54.890625 33.015625 
z
" id="DejaVuSans-68"/>
    </defs>
    <g transform="translate(192.013125 56.76096)scale(0.12 -0.12)">
     <use xlink:href="#DejaVuSans-77"/>
     <use x="81.787109" xlink:href="#DejaVuSans-69"/>
     <use x="109.570312" xlink:href="#DejaVuSans-74"/>
     <use x="148.779297" xlink:href="#DejaVuSans-68"/>
     <use x="212.158203" xlink:href="#DejaVuSans-5f"/>
     <use x="262.158203" xlink:href="#DejaVuSans-6f"/>
     <use x="323.339844" xlink:href="#DejaVuSans-62"/>
     <use x="386.816406" xlink:href="#DejaVuSans-73"/>
     <use x="438.916016" xlink:href="#DejaVuSans-74"/>
     <use x="478.125" xlink:href="#DejaVuSans-61"/>
     <use x="539.404297" xlink:href="#DejaVuSans-63"/>
     <use x="594.384766" xlink:href="#DejaVuSans-6c"/>
     <use x="622.167969" xlink:href="#DejaVuSans-65"/>
     <use x="683.691406" xlink:href="#DejaVuSans-73"/>
    </g>
   </g>
  </g>
 </g>
 <defs>
  <clipPath id="p12e98627a6">
   <rect height="266.112" width="357.12" x="57.6" y="41.472"/>
  </clipPath>
 </defs>
</svg>
